<svg xmlns="http://www.w3.org/2000/svg" version="1.1" xmlns:xlink="http://www.w3.org/1999/xlink" xmlns:svgjs="http://svgjs.dev/svgjs" width="1000" height="623" viewBox="0 0 1000 623"><g transform="matrix(1,0,0,1,-0.6060606060606233,0.2522267206477409)"><svg viewBox="0 0 396 247" data-background-color="#ffffff" preserveAspectRatio="xMidYMid meet" height="623" width="1000" xmlns="http://www.w3.org/2000/svg" xmlns:xlink="http://www.w3.org/1999/xlink"><g id="tight-bounds" transform="matrix(1,0,0,1,0.2400000000000091,-0.09999999999999432)"><svg viewBox="0 0 395.52 247.2" height="247.2" width="395.52"><g><svg></svg></g><g><svg viewBox="0 0 395.52 247.2" height="247.2" width="395.52"><g transform="matrix(1,0,0,1,39.55199999999999,112.32887726286376)"><svg viewBox="0 0 316.416 22.542245474272466" height="22.542245474272466" width="316.416"><g><svg viewBox="0 0 316.416 22.542245474272466" height="22.542245474272466" width="316.416"><g><svg viewBox="0 0 316.416 22.542245474272466" height="22.542245474272466" width="316.416"><g id="textblocktransform"><svg viewBox="0 0 316.416 22.542245474272466" height="22.542245474272466" width="316.416" id="textblock"><g><svg viewBox="0 0 316.416 22.542245474272466" height="22.542245474272466" width="316.416"><g transform="matrix(1,0,0,1,0,0)"><svg width="316.416" viewBox="2.7854168333499993 -34.75 504.58458316665 35.95" height="22.542245474272466" data-palette-color="#ffffff"><path d="M29.4 0.9L28.7 0.4Q28.4 0.05 28.4 0L28.4 0 23.15-6.05Q23-6.2 22.65-6.65 22.3-7.1 22-7.4L22-7.4 21.25-8.15Q20.9-8.4 20.8-8.4L20.8-8.4Q20.6-8.4 20.5-8.28 20.4-8.15 20.4-8L20.4-8 20.4-7.3 20.4-6.2Q20.4-5.4 20.3-4.95L20.3-4.95 20.3-3.65Q20.25-3.2 20.25-2.55L20.25-2.55 20.25-1.9 20.25-1.15 20.25-0.95Q20.25-0.45 19.9-0.4L19.9-0.4Q19.65-0.2 19.15-0.3L19.15-0.3Q16.55-0.2 15.4-0.2L15.4-0.2 9-0.25 8.15-0.25 7.15-0.25Q6.5-0.25 6.25-0.3L6.25-0.3 5.9-0.3 3.65-0.5 3.5-0.9Q3.45-0.9 3.45-1.45L3.45-1.45Q3.45-2.3 3.4-2.9L3.4-2.9 3.4-4.9Q3.3-5.65 3.3-7.15L3.3-7.15 3.2-11Q3.15-12.25 2.95-14.75L2.95-14.75 2.9-16Q2.8-17.7 2.8-18.5L2.8-18.5 2.8-19Q2.9-19.3 2.9-19.9L2.9-19.9Q2.95-20.55 2.95-21.4L2.95-21.4 2.9-22.4Q2.9-22.75 2.85-22.98 2.8-23.2 2.8-23.3L2.8-23.3Q2.8-23.4 2.85-23.9 2.9-24.4 2.9-24.9L2.9-24.9Q2.95-25.5 2.95-26.4L2.95-26.4 2.95-27.15 2.95-28.15Q2.9-29 2.9-30.65L2.9-30.65Q2.8-31 2.8-31.65L2.8-31.65 2.8-32.15Q2.65-33.3 4-33.5L4-33.5Q4.4-33.65 5.15-33.65L5.15-33.65 6.25-33.65 11.8-33.65 15.9-33.65 18.55-33.65 20.15-33.65Q20.85-33.65 21-32.8L21-32.8Q21.05-32.65 21.05-32.15L21.05-32.15 21.05-31.4Q21.05-30.15 20.95-27.65L20.95-27.65 20.9-26.3Q20.8-25 20.8-24.5L20.8-24.5Q21.4-24.5 21.9-24.8L21.9-24.8Q22.25-25.15 22.25-25.15L22.25-25.15Q22.35-25.2 22.48-25.33 22.6-25.45 22.7-25.55L22.7-25.55Q22.9-25.65 23.65-26.4L23.65-26.4Q24.9-27.65 27.75-30.25L27.75-30.25Q30.5-32.85 32.05-34.05L32.05-34.05Q33-34.7 33.25-34.75L33.25-34.75Q33.35-34.75 33.6-34.5 33.85-34.25 33.95-34.15L33.95-34.15Q33.95-34.15 34.4-33.7L34.4-33.7Q34.5-33.45 34.65-33.4L34.65-33.4 34.95-33.05Q35.4-32.7 35.55-32.45L35.55-32.45 36.15-31.9Q36.3-31.75 36.4-31.63 36.5-31.5 36.55-31.45L36.55-31.45Q36.85-30.95 38.15-29.3L38.15-29.3Q39.15-28.15 39.65-27.05L39.65-27.05 39.65-26.95Q39.65-26.25 38.25-24.75L38.25-24.75 37.15-23.65Q36.55-23.1 36.3-22.8L36.3-22.8Q36.25-22.8 36.15-22.7 36.05-22.6 35.9-22.45L35.9-22.45 33.9-20.9Q33.9-20.9 32.9-19.9L32.9-19.9 32-19.2Q31.9-19.15 31.63-18.93 31.35-18.7 31.15-18.65L31.15-18.65Q31-18.55 30.8-18.43 30.6-18.3 30.55-18.2L30.55-18.2Q30.45-18.15 30.45-17.75L30.45-17.75Q30.45-16.95 31.25-16.25L31.25-16.25Q31.6-15.85 31.95-15.65L31.95-15.65 32.65-15.05Q33.7-14 33.7-14L33.7-14Q34.7-13.15 37.3-10.75L37.3-10.75Q39.3-8.95 40.45-7.5L40.45-7.5Q40.95-6.75 40.95-6.4L40.95-6.4Q40.95-6.1 40.88-5.9 40.8-5.7 40.55-5.45L40.55-5.45Q39.55-4.6 38.7-4.2L38.7-4.2Q37.85-3.75 37.05-3.08 36.25-2.4 35.5-1.75L35.5-1.75Q34.85-1.15 34-0.65L34-0.65 33-0.15Q33-0.15 32.55 0.15L32.55 0.15Q32.1 0.45 31.9 0.65L31.9 0.65Q31.15 1.1 30.35 1.1L30.35 1.1Q29.9 1.1 29.4 0.9L29.4 0.9ZM64.6 1.2Q58.65 1.2 55.2 0.25L55.2 0.25Q50.4-1 47.9-4.4L47.9-4.4Q45-8.45 45-15.65L45-15.65Q45-20.8 46.15-24.4 47.3-28 49.7-30.3L49.7-30.3Q52.1-32.6 55.87-33.68 59.65-34.75 65.1-34.75L65.1-34.75Q69.35-34.75 73.1-33.45L73.1-33.45Q77.7-31.8 80.25-28.4L80.25-28.4Q83.4-24.35 83.4-17.75L83.4-17.75Q83.4-10.05 81.1-5.75L81.1-5.75Q78.8-1.8 74.45-0.15L74.45-0.15Q70.9 1.2 64.6 1.2L64.6 1.2ZM64.2-3.65Q64.8-3.65 65.15-4.4L65.15-4.4Q65.9-6 66.2-9.45L66.2-9.45Q66.5-12.6 66.5-15.4L66.5-15.4 66.5-17.4 66.5-18.65Q66.5-20.85 66.2-24L66.2-24Q65.9-27.4 65.15-29.15L65.15-29.15Q64.75-30 64.2-30L64.2-30Q63.1-30 62.6-27.9L62.6-27.9Q62.1-25 62.1-22.65L62.1-22.65Q61.95-20.65 61.95-16.4L61.95-16.4Q61.95-13.55 62.1-11.7L62.1-11.7Q62.1-9.35 62.6-6.25L62.6-6.25Q63.1-3.65 64.2-3.65L64.2-3.65ZM90.8 0.55Q89.75 0.55 89.45-1.4L89.45-1.4Q89.3-2.25 89.3-2.95L89.3-2.95 89.3-4.05Q89.15-5.7 89.15-7.25L89.15-7.25Q88.95-11.85 88.8-13.75L88.8-13.75Q88.8-14.6 88.7-15.58 88.6-16.55 88.55-16.95L88.55-16.95 88.55-32.75Q88.55-33.2 88.9-33.3L88.9-33.3 89.2-33.3 89.35-33.25Q91.1-33.25 93.95-33.4L93.95-33.4Q97.75-33.5 100.3-33.5L100.3-33.5 100.8-33.5Q101.1-33.45 101.8-33.45L101.8-33.45 102.7-33.45 103.2-33.45Q104.7-33.45 105.55-33.4L105.55-33.4 110.7-33.4Q111.65-33.3 113.8-33.3L113.8-33.3Q114.2-33.3 114.4-33.25L114.4-33.25Q114.8-33.15 115.3-33.15L115.3-33.15Q115.5-33.15 115.7-33.3L115.7-33.3Q116.85-33.3 116.95-31.2L116.95-31.2Q117.05-30.5 117.05-30.15L117.05-30.15Q117.05-29.85 116.95-28.95L116.95-28.95Q116.9-28.15 116.9-26.4L116.9-26.4Q116.9-25.85 115.95-25.75L115.95-25.75Q115.7-25.7 115.1-25.7L115.1-25.7 114.4-25.7 112.15-25.7 110.65-25.65Q110.15-25.5 109.1-25.5L109.1-25.5Q108.05-25.5 107.9-25.55L107.9-25.55Q107.75-25.5 107.67-25.45 107.6-25.4 107.55-25.4L107.55-25.4Q107.55-25.3 107.5-25.2 107.45-25.1 107.45-24.9L107.45-24.9Q107.4-24.55 107.2-22.3L107.2-22.3Q107.15-21.65 107.15-20L107.15-20 107.1-19.9Q107.1-19.7 107.3-19.45L107.3-19.45 113.3-19.45Q113.9-19.45 114.17-19.3 114.45-19.15 114.6-18.75L114.6-18.75Q114.8-18.15 114.8-15.65L114.8-15.65 114.8-13.25 114.8-11.9Q114.7-11.45 114.52-11.3 114.35-11.15 114.05-11.15L114.05-11.15Q113.65-11.15 113.3-11.05L113.3-11.05 111.05-10.9 110.05-10.9Q109.3-10.9 109.05-10.8L109.05-10.8Q108.7-10.7 108.1-10.65L108.1-10.65 107.4-10.65Q106.6-10.65 106.3-10.45L106.3-10.45Q106.05-10.4 105.8-9.95L105.8-9.95Q105.8-5.4 105.7-3.75L105.7-3.75Q105.65-1.35 105.2-0.25L105.2-0.25Q104.3-0.25 102.6-0.15L102.6-0.15Q101.8-0.15 101.55-0.05L101.55-0.05 101.05-0.05 100.95-0.05Q100.75-0.05 100.65-0.1 100.55-0.15 100.45-0.15L100.45-0.15 100.3-0.2Q100.3-0.25 100.1-0.25L100.1-0.25Q100.05-0.25 99.92-0.2 99.8-0.15 99.7-0.05L99.7-0.05 95.55-0.05Q95.5 0 95.32 0.03 95.15 0.05 94.85 0.15L94.85 0.15 91.8 0.5 90.8 0.55ZM123.19 0.05Q122.84 0.05 122.54-0.23 122.24-0.5 122.09-0.95L122.09-0.95Q121.89-1.85 121.79-2.95L121.79-2.95Q121.74-3.3 121.74-3.9L121.74-3.9 121.74-4.55 121.79-10.75Q121.79-13.9 121.94-16.95L121.94-16.95 121.94-32.75Q121.94-33.25 122.59-33.25L122.59-33.25Q126.04-33.25 127.74-33.3L127.74-33.3 132.74-33.3Q132.89-33.3 132.99-33.35 133.09-33.4 133.24-33.4L133.24-33.4Q133.89-33.5 135.04-33.45L135.04-33.45Q135.89-33.45 136.84-33.3L136.84-33.3Q137.14-33.1 137.29-33.2L137.29-33.2Q137.39-33.2 137.69-33.3L137.69-33.3Q138.44-33.3 138.87-33.2 139.29-33.1 139.54-32.75L139.54-32.75Q139.79-32.3 139.94-31.65L139.94-31.65Q139.99-31.15 139.99-29.55L139.99-29.55 139.99-19.8 139.99-19.05Q139.94-18.65 139.94-17.25L139.94-17.25Q139.94-15.75 139.84-14.9L139.84-14.9 139.79-12.65Q139.74-11.9 139.74-10.75L139.74-10.75 139.69-9.95 139.69-6.75Q139.69-3.75 139.44-1.65L139.44-1.65Q139.44-0.95 139.09-0.25L139.09-0.25Q138.19-0.25 136.49-0.15L136.49-0.15Q135.69-0.15 135.44-0.05L135.44-0.05 134.94-0.05 134.79-0.05Q134.44-0.05 134.44-0.15L134.44-0.15Q134.04-0.25 133.99-0.25L133.99-0.25 133.59-0.05 128.99-0.05Q128.94 0 128.19 0L128.19 0 126.29 0 124.44 0 123.19 0.05ZM164.39 0.15Q163.89 0.15 163.59 0.05L163.59 0.05 162.59 0.05 161.69 0.05 161.34 0.05 159.09-0.5 158.89-0.9Q158.84-0.9 158.84-1.45L158.84-1.45Q158.84-2.15 158.79-2.6L158.79-2.6 158.74-4.9Q158.69-5.65 158.69-7.15L158.69-7.15 158.59-11Q158.59-12.25 158.69-14.45L158.69-14.45 158.74-16.15Q158.84-17.75 158.84-21.4L158.84-21.4 158.84-21.75 158.84-22.4Q158.74-22.55 158.74-22.95L158.74-22.95 158.69-23.3Q158.69-24.55 158.84-25.9L158.84-25.9Q158.94-27.6 158.94-29L158.94-29 158.89-30.4Q158.84-30.95 158.84-31.7L158.84-31.7Q158.84-31.75 158.76-31.85 158.69-31.95 158.69-32.05L158.69-32.05Q158.69-32.55 159.09-32.9 159.49-33.25 160.09-33.4L160.09-33.4Q160.89-33.65 162.14-33.65L162.14-33.65 170.59-33.65 174.49-33.65Q174.54-33.65 174.64-33.55 174.74-33.45 174.84-33.4L174.84-33.4Q175.24-33.05 175.84-32.05L175.84-32.05Q175.99-31.75 176.16-31.38 176.34-31 176.64-30.2L176.64-30.2Q176.99-29.4 177.59-27.75L177.59-27.75 178.19-26.2Q178.59-25.45 179.09-24.05L179.09-24.05Q179.24-23.65 179.41-23.25 179.59-22.85 179.74-22.45L179.74-22.45Q179.84-22.1 179.96-21.93 180.09-21.75 180.09-21.7L180.09-21.7Q180.44-20.9 180.84-20.9L180.84-20.9Q181.34-20.9 181.64-21.7L181.64-21.7Q181.69-21.75 181.74-21.93 181.79-22.1 181.99-22.5L181.99-22.5 182.74-24.15 184.74-28.4 185.59-30.2Q185.74-30.6 185.81-30.88 185.89-31.15 185.99-31.25L185.99-31.25Q186.19-31.7 186.94-32.8L186.94-32.8Q187.19-33.2 187.39-33.4L187.39-33.4Q187.54-33.45 187.59-33.55 187.64-33.65 187.74-33.65L187.74-33.65 191.64-33.65 200.09-33.65 200.84-33.65 201.34-33.65 201.99-33.65 203.09-33.65Q203.19-33.65 203.34-32.9L203.34-32.9 203.49-28Q203.59-25.9 203.59-21.4L203.59-21.4 203.59-18.5Q203.59-16.8 203.44-14.7 203.29-12.6 203.24-12L203.24-12 203.14-11 203.14-9.25Q203.19-8.55 203.19-7.15L203.19-7.15Q203.19-5.65 203.24-4.9L203.24-4.9Q203.24-3.45 203.34-2.9L203.34-2.9 203.34-1.45 203.34-0.9 203.19-0.5 200.94 0.05 200.59 0.05 199.69 0.05 198.69 0.05Q198.34 0.15 197.84 0.15L197.84 0.15Q196.94 0.15 195.34 0.05L195.34 0.05 194.09 0Q193.74-0.05 193.29-0.1 192.84-0.15 192.19-0.15L192.19-0.15 190.24-0.3Q190.14-0.3 190.09-0.25L190.09-0.25 189.69-0.25Q189.44-0.25 189.39-0.8L189.39-0.8Q189.09-1.8 189.09-4.2L189.09-4.2Q189.09-5.8 189.04-6.7L189.04-6.7 188.99-9.4Q188.94-10.3 188.94-12L188.94-12Q188.94-12.4 188.59-12.4L188.59-12.4Q188.39-12.4 188.19-11.9L188.19-11.9 187.64-10.55 187.19-9.3Q187.09-9 186.99-8.7 186.89-8.4 186.74-8.15L186.74-8.15 186.49-7.55Q186.04-6.55 185.34-5.3L185.34-5.3Q184.59-3.95 183.49-3.15L183.49-3.15Q182.89-2.8 182.44-2.8L182.44-2.8 181.69-2.8Q181.09-2.8 180.69-2.9L180.69-2.9 179.59-2.9 178.59-2.9Q176.59-6.1 174.84-9.9L174.84-9.9 174.09-11.75Q173.79-12.4 173.69-12.4L173.69-12.4Q173.34-12.4 173.34-12L173.34-12 173.34-9.65Q173.34-6.15 173.24-4.5L173.24-4.5Q173.14-1.9 172.89-0.9L172.89-0.9Q172.84-0.25 172.59-0.25L172.59-0.25 172.24-0.25 171.99-0.3Q170.29-0.2 169.29-0.1L169.29-0.1Q168.69-0.05 167.19 0.05 165.69 0.15 164.39 0.15L164.39 0.15ZM210.09 0.05Q209.44 0.05 209.19-0.95L209.19-0.95Q209.14-1.1 209.14-1.45L209.14-1.45Q209.14-1.95 209.34-2.95L209.34-2.95Q209.44-3.6 209.51-3.98 209.59-4.35 209.64-4.55L209.64-4.55Q211.14-11.6 212.59-16.95L212.59-16.95 216.09-32.75Q216.09-32.85 216.24-33.05 216.39-33.25 216.59-33.3L216.59-33.3 216.84-33.3Q216.84-33.25 216.99-33.25L216.99-33.25Q217.59-33.25 218.34-33.4L218.34-33.4Q219.09-33.55 219.69-33.55L219.69-33.55Q220.79-33.55 221.74-33.4L221.74-33.4Q222.19-33.4 222.74-33.35 223.29-33.3 223.89-33.3L223.89-33.3Q224.09-33.3 224.34-33.4L224.34-33.4 225.24-33.4 226.39-33.4 227.59-33.45Q227.94-33.5 228.44-33.5L228.44-33.5Q228.84-33.5 228.84-33.55L228.84-33.55 229.64-33.55 231.34-33.55 233.44-33.55Q236.24-33.55 237.14-33.45L237.14-33.45Q237.29-33.45 237.56-33.43 237.84-33.4 237.89-33.3L237.89-33.3Q238.24-33.3 238.59-33.35 238.94-33.4 239.24-33.4L239.24-33.4Q239.94-33.55 240.59-33.55L240.59-33.55Q240.89-33.55 241.19-33.4L241.19-33.4Q241.49-33.25 241.84-33.25L241.84-33.25 242.09-33.3 242.24-33.3Q242.39-33.2 242.56-33.02 242.74-32.85 242.74-32.75L242.74-32.75 246.24-16.95Q247.84-11.1 249.14-4.55L249.14-4.55Q249.14-4.25 249.34-3.9L249.34-3.9Q249.39-3.55 249.49-2.95 249.59-2.35 249.59-1.95L249.59-1.95Q249.64-1.75 249.64-1.4L249.64-1.4Q249.64-0.7 249.34-0.25L249.34-0.25Q249.14 0.05 248.74 0.05L248.74 0.05 248.09 0.05Q247.34 0.05 246.94 0L246.94 0 245.64 0 244.39 0 243.39 0Q242.99 0 242.99-0.05L242.99-0.05 239.84-0.05 239.84-0.15Q239.64-0.25 239.34-0.25L239.34-0.25Q239.34-0.25 239.31-0.23 239.29-0.2 239.24-0.15L239.24-0.15Q239.24-0.05 239.14-0.05L239.14-0.05 238.99-0.05 238.59-0.05Q238.34-0.15 237.59-0.15L237.59-0.15Q236.09-0.25 235.24-0.25L235.24-0.25Q234.94-0.7 234.61-2.05 234.29-3.4 233.94-5.05L233.94-5.05Q233.84-5.85 233.74-6.15L233.74-6.15Q232.69-5.95 230.99-5.95L230.99-5.95 229.44-5.95 227.99-5.95 227.64-4.35Q226.99-1.05 226.59-0.25L226.59-0.25Q226.39-0.25 226.09-0.15L226.09-0.15Q225.99-0.1 225.91-0.08 225.84-0.05 225.84-0.05L225.84-0.05 225.64-0.05Q225.34-0.05 225.19-0.15L225.19-0.15Q225.09-0.25 224.94-0.25L224.94-0.25 222.69-0.15 221.89-0.15 221.14-0.15Q220.94-0.05 220.64-0.05L220.64-0.05 220.44-0.05 215.84-0.05 215.39-0.05Q214.84 0 213.14 0L213.14 0 211.84 0Q211.44 0.05 210.69 0.05L210.69 0.05 210.09 0.05ZM233.19-12.2Q232.84-14.65 232.84-14.65L232.84-14.65Q232.69-15.35 232.34-17.3L232.34-17.3Q232.24-17.8 231.84-20L231.84-20Q231.44-22.4 231.44-22.4L231.44-22.4Q231.29-23.4 231.14-24.15L231.14-24.15 231.09-24.8Q230.94-25.05 230.94-25.25L230.94-25.25 230.89-25.55Q230.84-25.45 230.84-25.25L230.84-25.25Q230.84-25.05 230.74-25L230.74-25 230.74-24.8 230.64-24.15Q230.59-23.8 230.51-23.38 230.44-22.95 230.34-22.45L230.34-22.45 230.09-21.05Q229.54-17.9 229.44-17.4L229.44-17.4Q229.39-16.85 229.19-15.75L229.19-15.75Q229.09-15.4 228.99-14.7L228.99-14.7 228.59-12.4 231.14-12.4 231.49-12.5 231.59-12.5Q232.19-12.5 232.49-12.4L232.49-12.4Q232.69-12.4 232.86-12.33 233.04-12.25 233.19-12.2L233.19-12.2ZM281.73 0.9L281.03 0.4Q280.73 0.05 280.73 0L280.73 0 275.48-6.05Q275.33-6.2 274.98-6.65 274.63-7.1 274.33-7.4L274.33-7.4 273.58-8.15Q273.23-8.4 273.13-8.4L273.13-8.4Q272.93-8.4 272.83-8.28 272.73-8.15 272.73-8L272.73-8 272.73-7.3 272.73-6.2Q272.73-5.4 272.63-4.95L272.63-4.95 272.63-3.65Q272.58-3.2 272.58-2.55L272.58-2.55 272.58-1.9 272.58-1.15 272.58-0.95Q272.58-0.45 272.23-0.4L272.23-0.4Q271.98-0.2 271.48-0.3L271.48-0.3Q268.88-0.2 267.73-0.2L267.73-0.2 261.33-0.25 260.48-0.25 259.48-0.25Q258.83-0.25 258.58-0.3L258.58-0.3 258.23-0.3 255.98-0.5 255.83-0.9Q255.78-0.9 255.78-1.45L255.78-1.45Q255.78-2.3 255.73-2.9L255.73-2.9 255.73-4.9Q255.63-5.65 255.63-7.15L255.63-7.15 255.53-11Q255.48-12.25 255.28-14.75L255.28-14.75 255.23-16Q255.13-17.7 255.13-18.5L255.13-18.5 255.13-19Q255.23-19.3 255.23-19.9L255.23-19.9Q255.28-20.55 255.28-21.4L255.28-21.4 255.23-22.4Q255.23-22.75 255.18-22.98 255.13-23.2 255.13-23.3L255.13-23.3Q255.13-23.4 255.18-23.9 255.23-24.4 255.23-24.9L255.23-24.9Q255.28-25.5 255.28-26.4L255.28-26.4 255.28-27.15 255.28-28.15Q255.23-29 255.23-30.65L255.23-30.65Q255.13-31 255.13-31.65L255.13-31.65 255.13-32.15Q254.98-33.3 256.33-33.5L256.33-33.5Q256.73-33.65 257.48-33.65L257.48-33.65 258.58-33.65 264.13-33.65 268.23-33.65 270.88-33.65 272.48-33.65Q273.18-33.65 273.33-32.8L273.33-32.8Q273.38-32.65 273.38-32.15L273.38-32.15 273.38-31.4Q273.38-30.15 273.28-27.65L273.28-27.65 273.23-26.3Q273.13-25 273.13-24.5L273.13-24.5Q273.73-24.5 274.23-24.8L274.23-24.8Q274.58-25.15 274.58-25.15L274.58-25.15Q274.68-25.2 274.81-25.33 274.93-25.45 275.03-25.55L275.03-25.55Q275.23-25.65 275.98-26.4L275.98-26.4Q277.23-27.65 280.08-30.25L280.08-30.25Q282.83-32.85 284.38-34.05L284.38-34.05Q285.33-34.7 285.58-34.75L285.58-34.75Q285.68-34.75 285.93-34.5 286.18-34.25 286.28-34.15L286.28-34.15Q286.28-34.15 286.73-33.7L286.73-33.7Q286.83-33.45 286.98-33.4L286.98-33.4 287.28-33.05Q287.73-32.7 287.88-32.45L287.88-32.45 288.48-31.9Q288.63-31.75 288.73-31.63 288.83-31.5 288.88-31.45L288.88-31.45Q289.18-30.95 290.48-29.3L290.48-29.3Q291.48-28.15 291.98-27.05L291.98-27.05 291.98-26.95Q291.98-26.25 290.58-24.75L290.58-24.75 289.48-23.65Q288.88-23.1 288.63-22.8L288.63-22.8Q288.58-22.8 288.48-22.7 288.38-22.6 288.23-22.45L288.23-22.45 286.23-20.9Q286.23-20.9 285.23-19.9L285.23-19.9 284.33-19.2Q284.23-19.15 283.96-18.93 283.68-18.7 283.48-18.65L283.48-18.65Q283.33-18.55 283.13-18.43 282.93-18.3 282.88-18.2L282.88-18.2Q282.78-18.15 282.78-17.75L282.78-17.75Q282.78-16.95 283.58-16.25L283.58-16.25Q283.93-15.85 284.28-15.65L284.28-15.65 284.98-15.05Q286.03-14 286.03-14L286.03-14Q287.03-13.15 289.63-10.75L289.63-10.75Q291.63-8.95 292.78-7.5L292.78-7.5Q293.28-6.75 293.28-6.4L293.28-6.4Q293.28-6.1 293.21-5.9 293.13-5.7 292.88-5.45L292.88-5.45Q291.88-4.6 291.03-4.2L291.03-4.2Q290.18-3.75 289.38-3.08 288.58-2.4 287.83-1.75L287.83-1.75Q287.18-1.15 286.33-0.65L286.33-0.65 285.33-0.15Q285.33-0.15 284.88 0.15L284.88 0.15Q284.43 0.45 284.23 0.65L284.23 0.65Q283.48 1.1 282.68 1.1L282.68 1.1Q282.23 1.1 281.73 0.9L281.73 0.9ZM302.03 0Q301.78 0 301.28-0.08 300.78-0.15 300.08-0.2L300.08-0.2 299.03-0.45Q298.78-0.5 298.66-0.58 298.53-0.65 298.58-0.7L298.58-0.7Q298.58-2 298.43-4.15L298.43-4.15Q298.43-4.9 298.38-5.48 298.33-6.05 298.28-6.45L298.28-6.45 298.18-8.6Q298.18-9.45 298.08-10.75L298.08-10.75 298.03-12.3Q298.03-14.2 297.98-15.25L297.98-15.25Q297.93-16.3 297.93-19.65L297.93-19.65Q297.93-22.8 297.98-26.15 298.03-29.5 298.28-32.5L298.28-32.5Q298.28-33.05 299.48-33.4L299.48-33.4Q300.23-33.5 301.98-33.5L301.98-33.5Q306.03-33.5 307.93-33.65L307.93-33.65Q313.83-33.75 316.83-33.75L316.83-33.75 319.03-33.75Q323.13-33.65 325.33-33.45L325.33-33.45Q326.13-33.45 326.48-31.55L326.48-31.55Q326.63-31.2 326.83-29.75L326.83-29.75Q326.98-29 327.23-27.9L327.23-27.9Q327.28-27.6 327.26-27.33 327.23-27.05 327.23-27L327.23-27Q327.18-26.5 326.68-26.5L326.68-26.5Q326.48-26.55 326.08-26.55L326.08-26.55Q323.98-26.55 320.93-26.2L320.93-26.2 318.28-26Q316.63-25.8 315.68-25.75L315.68-25.75Q315.53-25.75 315.28-25.15L315.28-25.15Q315.08-24.5 314.83-22.15L314.83-22.15 314.73-20.9Q314.73-20.25 314.88-20.08 315.03-19.9 315.53-19.9L315.53-19.9 319.98-19.9Q321.93-19.9 324.43-19.65L324.43-19.65 325.03-19.65Q325.68-19.5 325.83-19.15L325.83-19.15Q326.03-18.85 326.08-18.5L326.08-18.5 326.28-14.05 326.28-13.9Q326.28-13.05 324.48-12.9L324.48-12.9Q323.43-12.65 320.48-12.65L320.48-12.65Q317.93-12.65 317.18-12.7L317.18-12.7Q315.73-12.7 315.43-12.65L315.43-12.65Q314.88-12.5 314.73-12.08 314.58-11.65 314.58-10.65L314.58-10.65Q314.58-10 314.48-8.8L314.48-8.8Q314.43-8.2 314.43-6.9L314.43-6.9Q317.68-6.9 319.23-7L319.23-7Q320.93-7.15 324.03-7.15L324.03-7.15Q324.23-7.15 324.43-6.8L324.43-6.8Q324.68-6.3 325.23-4.55L325.23-4.55Q325.53-3.55 325.83-2.05L325.83-2.05Q325.93-1.7 325.93-1.3L325.93-1.3Q325.93-0.25 324.93-0.25L324.93-0.25Q323.63-0.25 321.43-0.15L321.43-0.15Q320.28-0.05 317.83-0.05L317.83-0.05Q312.58-0.05 309.93 0L309.93 0 302.03 0ZM340.73 0.05Q340.03 0.05 339.68-0.9L339.68-0.9Q338.93-2.55 338.93-6.9L338.93-6.9Q338.93-11.1 339.08-16.55L339.08-16.55Q339.13-18.3 339.13-21.95L339.13-21.95 338.98-22.15 333.43-22.15Q332.78-22.15 332.4-22.88 332.03-23.6 331.83-24.9L331.83-24.9Q331.58-26.4 331.58-29.2L331.58-29.2 331.58-29.9Q331.58-30.4 331.63-30.7L331.63-30.7 331.63-31.45 331.63-31.9Q331.63-32.2 331.93-32.43 332.23-32.65 332.63-32.75L332.63-32.75Q333.13-32.9 334.13-32.9L334.13-32.9 337.93-32.9Q339.18-32.9 339.83-32.85L339.83-32.85 341.68-32.8 359.68-32.8Q361.63-32.8 362.23-32.75L362.23-32.75Q362.48-32.7 362.93-32.65 363.38-32.6 363.58-32.45L363.58-32.45Q363.93-32.3 364-32.08 364.08-31.85 364.08-31.4L364.08-31.4 364.08-23.15Q364.08-22.6 363.63-22.4L363.63-22.4Q363.33-22.3 362.83-22.3L362.83-22.3 361.23-22.3 359.58-22.3Q358.43-22.3 357.83-22.4L357.83-22.4 356.33-22.4Q355.88-22.4 355.83-22.2L355.83-22.2Q355.83-22.15 355.78-22.08 355.73-22 355.73-21.9L355.73-21.9 355.73-21.15 355.73-19.45Q355.73-18.7 355.68-18.3L355.68-18.3Q355.68-16.85 355.48-11.95L355.48-11.95 355.38-10.45Q355.28-8.35 355.18-7.4L355.18-7.4 355.18-2.65Q355.18-0.95 354.48-0.5L354.48-0.5Q353.83-0.25 353.58-0.2L353.58-0.2 352.33-0.15Q350.38-0.15 349.58-0.05L349.58-0.05 344.33 0Q343.33 0.05 340.73 0.05L340.73 0.05ZM370.32-0.05Q369.47-0.05 369.22-1.15L369.22-1.15Q368.97-1.7 368.97-3.15L368.97-3.15Q368.97-7.5 368.88-10.9L368.88-10.9Q368.72-15.8 368.72-21.25L368.72-21.25 368.72-32.25Q368.72-32.7 369.15-33.13 369.57-33.55 370.02-33.55L370.02-33.55 375.77-33.5Q377.38-33.45 379.97-33.45L379.97-33.45Q383.72-33.45 385.77-33.5L385.77-33.5 387.63-33.55Q390.63-33.65 392.57-33.65L392.57-33.65Q395.72-33.65 398.57-32.75L398.57-32.75Q401.93-31.75 404.02-29.3L404.02-29.3Q406.38-26.65 406.38-22.15L406.38-22.15Q406.38-14.55 402.52-11.15L402.52-11.15Q399.13-7.95 392.38-7.95L392.38-7.95 385.52-7.95Q385.57-6.8 385.57-5.5L385.57-5.5Q385.57-5.05 385.55-4.42 385.52-3.8 385.52-2.75L385.52-2.75Q385.52-1.1 384.82-0.65L384.82-0.65Q384.27-0.2 382.77-0.2L382.77-0.2Q380.57-0.2 379.72-0.15L379.72-0.15Q376.27-0.15 374.22-0.05L374.22-0.05 370.32-0.05ZM386.82-13.95L388.22-13.95Q389.27-13.95 389.77-15.95L389.77-15.95Q390.18-17.3 390.38-19.95L390.38-19.95Q390.47-21.4 390.47-23.2L390.47-23.2 390.47-23.75Q390.47-24.55 390.22-26.15L390.22-26.15Q390.02-27.05 389.77-27.58 389.52-28.1 389.13-28.45L389.13-28.45Q388.72-28.9 388.22-28.9L388.22-28.9Q387.97-28.9 387.8-28.7 387.63-28.5 387.47-28.2L387.47-28.2Q386.93-27.3 386.47-24.2L386.47-24.2Q386.32-23.3 386.22-21.5L386.22-21.5Q385.97-18.75 385.97-14.15L385.97-14.15Q385.97-14.15 386.02-14.1 386.07-14.05 386.22-14L386.22-14 386.82-13.95ZM426.92 0Q421.77 0 419.42-0.05L419.42-0.05Q417.27-0.05 416.12-0.1L416.12-0.1 412.02-0.15Q411.57-0.15 411.17-0.55L411.17-0.55Q410.77-0.95 410.77-1.4L410.77-1.4 410.77-12.4 410.77-17.2 410.72-21.3Q410.72-23.35 410.82-26.45L410.82-26.45Q410.82-27.1 410.97-29.8L410.97-29.8 410.97-30.95Q410.97-32.35 411.52-33.2L411.52-33.2Q411.77-33.65 412.32-33.65L412.32-33.65Q414.77-33.65 417.67-33.55L417.67-33.55Q418.07-33.5 418.82-33.5L418.82-33.5Q420.47-33.5 421.27-33.45L421.27-33.45 423.97-33.45Q424.17-33.45 425.15-33.45 426.12-33.45 426.67-33.2L426.67-33.2Q427.57-32.7 427.57-30.9L427.57-30.9 427.52-30.5Q427.52-30.35 427.42-29.75L427.42-29.75Q427.27-29 427.27-28.65L427.27-28.65Q427.27-28.1 427.42-27.25L427.42-27.25Q427.52-26.65 427.52-26.45L427.52-26.45 427.57-26.15 427.57-19.15 427.57-15.9 427.57-12.8 427.57-12.2Q427.57-11.8 428.02-11.7L428.02-11.7Q428.17-11.65 428.67-11.65L428.67-11.65 432.32-11.65Q433.67-11.7 436.42-11.7L436.42-11.7Q436.97-11.7 437.32-11.38 437.67-11.05 437.67-10.7L437.67-10.7 437.67-1.15 437.67-1.05Q437.67-0.65 437.27-0.4L437.27-0.4Q436.82-0.2 436.22-0.15L436.22-0.15Q435.57 0 434.17 0L434.17 0 426.92 0ZM446.02 0Q445.77 0 445.27-0.08 444.77-0.15 444.07-0.2L444.07-0.2 443.02-0.45Q442.77-0.5 442.64-0.58 442.52-0.65 442.57-0.7L442.57-0.7Q442.57-2 442.42-4.15L442.42-4.15Q442.42-4.9 442.37-5.48 442.32-6.05 442.27-6.45L442.27-6.45 442.17-8.6Q442.17-9.45 442.07-10.75L442.07-10.75 442.02-12.3Q442.02-14.2 441.97-15.25L441.97-15.25Q441.92-16.3 441.92-19.65L441.92-19.65Q441.92-22.8 441.97-26.15 442.02-29.5 442.27-32.5L442.27-32.5Q442.27-33.05 443.47-33.4L443.47-33.4Q444.22-33.5 445.97-33.5L445.97-33.5Q450.02-33.5 451.92-33.65L451.92-33.65Q457.82-33.75 460.82-33.75L460.82-33.75 463.02-33.75Q467.12-33.65 469.32-33.45L469.32-33.45Q470.12-33.45 470.47-31.55L470.47-31.55Q470.62-31.2 470.82-29.75L470.82-29.75Q470.97-29 471.22-27.9L471.22-27.9Q471.27-27.6 471.25-27.33 471.22-27.05 471.22-27L471.22-27Q471.17-26.5 470.67-26.5L470.67-26.5Q470.47-26.55 470.07-26.55L470.07-26.55Q467.97-26.55 464.92-26.2L464.92-26.2 462.27-26Q460.62-25.8 459.67-25.75L459.67-25.75Q459.52-25.75 459.27-25.15L459.27-25.15Q459.07-24.5 458.82-22.15L458.82-22.15 458.72-20.9Q458.72-20.25 458.87-20.08 459.02-19.9 459.52-19.9L459.52-19.9 463.97-19.9Q465.92-19.9 468.42-19.65L468.42-19.65 469.02-19.65Q469.67-19.5 469.82-19.15L469.82-19.15Q470.02-18.85 470.07-18.5L470.07-18.5 470.27-14.05 470.27-13.9Q470.27-13.05 468.47-12.9L468.47-12.9Q467.42-12.65 464.47-12.65L464.47-12.65Q461.92-12.65 461.17-12.7L461.17-12.7Q459.72-12.7 459.42-12.65L459.42-12.65Q458.87-12.5 458.72-12.08 458.57-11.65 458.57-10.65L458.57-10.65Q458.57-10 458.47-8.8L458.47-8.8Q458.42-8.2 458.42-6.9L458.42-6.9Q461.67-6.9 463.22-7L463.22-7Q464.92-7.15 468.02-7.15L468.02-7.15Q468.22-7.15 468.42-6.8L468.42-6.8Q468.67-6.3 469.22-4.55L469.22-4.55Q469.52-3.55 469.82-2.05L469.82-2.05Q469.92-1.7 469.92-1.3L469.92-1.3Q469.92-0.25 468.92-0.25L468.92-0.25Q467.62-0.25 465.42-0.15L465.42-0.15Q464.27-0.05 461.82-0.05L461.82-0.05Q456.57-0.05 453.92 0L453.92 0 446.02 0ZM490.47 1.2Q486.92 1.2 483.32 0.4L483.32 0.4Q479.77-0.45 477.47-1.9L477.47-1.9Q476.87-3.7 476.57-5.5 476.27-7.3 475.82-10.65L475.82-10.65 475.82-10.8Q475.92-11.4 476.47-11.7L476.47-11.7Q478.37-10.55 480.12-9.98 481.87-9.4 483.97-9.4L483.97-9.4 485.17-9.4 485.97-9.35Q487.12-9.35 488.32-9.7L488.32-9.7Q488.97-9.95 489.22-10.65L489.22-10.65 486.57-11.95Q483.52-13.4 481.07-15.05L481.07-15.05Q478.52-16.9 477.42-19.75L477.42-19.75Q476.87-21.3 476.87-23.15L476.87-23.15Q476.87-27.65 479.62-30.4L479.62-30.4Q482.02-32.85 486.12-33.9L486.12-33.9Q489.67-34.75 493.92-34.75L493.92-34.75Q496.42-34.75 500.82-34.2L500.82-34.2Q501.27-34.1 502.07-34L502.07-34 503.57-33.7Q505.27-33.4 506.07-33.4L506.07-33.4Q506.12-33.4 506.24-33.25 506.37-33.1 506.47-33L506.47-33Q506.67-32.65 506.87-32.65L506.87-32.65 506.92-32.65 506.97-32.65 507.07-31.6Q507.07-30.85 507.22-30L507.22-30Q507.37-28.75 507.37-27.3L507.37-27.3Q507.37-26.05 507.22-25.5L507.22-25.5Q506.97-24.5 506.32-24.05L506.32-24.05 501.67-24.65 501.17-24.65 500.47-24.65Q498.77-24.65 496.57-24.3L496.57-24.3 494.92-23.95Q494.32-23.85 494.32-23.75L494.32-23.75Q494.32-22.55 495.87-21.5L495.87-21.5Q496.62-21.1 497.37-20.83 498.12-20.55 498.32-20.45L498.32-20.45Q502.02-19.4 504.72-16.8L504.72-16.8Q505.97-15.6 506.67-14.25 507.37-12.9 507.37-11.65L507.37-11.65Q507.37-10.9 507.17-10.05L507.17-10.05Q506.82-6.3 504.32-3.55L504.32-3.55Q501.87-1.1 498.17 0.05L498.17 0.05Q494.97 1.2 490.47 1.2L490.47 1.2Z" opacity="1" transform="matrix(1,0,0,1,0,0)" fill="#ffffff" class="undefined-text-0" data-fill-palette-color="primary" id="text-0"></path></svg></g></svg></g></svg></g></svg></g></svg></g></svg></g><g mask="url(&quot;#3936ea44-3b97-4723-bfb3-99a1ad6338c9&quot;)"><g transform="matrix(24.77864703951921, 0, 0, 24.77864703951921, 100.84399841458348, 0.9999999999999858)"><svg xmlns="http://www.w3.org/2000/svg" xmlns:xlink="http://www.w3.org/1999/xlink" version="1.1" x="0" y="0" viewBox="1.1775748414106346 0.0001534712047423295 7.822541838611783 9.89561696443446" enable-background="new 0 0 10 10" xml:space="preserve" height="9.89561696443446" width="7.822541838611783" class="icon-none" data-fill-palette-color="accent" id="none"><g fill="#ffdc00" data-fill-palette-color="accent"><path fill="#ffdc00" d="M8.839 4.097C8.228 1.405 6.051-0.396 3.98 0.075 3.776 0.122 3.581 0.195 3.395 0.28c0.039 0.021 0.076 0.042 0.12 0.067 0.133 0.084 0.311 0.15 0.475 0.309C4.153 0.805 4.381 0.958 4.554 1.18c0.17 0.221 0.389 0.451 0.522 0.753C5.148 2.079 5.243 2.227 5.293 2.39c0.055 0.164 0.109 0.332 0.166 0.501 0.076 0.342 0.155 0.707 0.174 1.064C5.675 4.32 5.67 4.676 5.678 5.034 5.676 5.38 5.673 5.728 5.67 6.068c0 0.337 0 0.661 0.02 0.972 0.012 0.156 0.021 0.309 0.031 0.458 0.015 0.148 0.047 0.288 0.065 0.429 0.026 0.287 0.118 0.536 0.171 0.785C5.98 8.838 6.034 8.945 6.073 9.053c0.04 0.109 0.079 0.213 0.116 0.31 0.053 0.164 0.123 0.292 0.185 0.411C8.334 9.199 9.433 6.711 8.839 4.097z" data-fill-palette-color="accent"></path><path fill="#ffdc00" d="M5.862 9.56C5.734 9.378 5.554 9.188 5.432 8.938 5.311 8.691 5.145 8.427 5.059 8.117c-0.05-0.152-0.104-0.311-0.147-0.474C4.878 7.48 4.845 7.312 4.811 7.142 4.77 6.969 4.764 6.797 4.743 6.621c-0.02-0.176-0.038-0.354-0.041-0.53-0.018-0.355-0.019-0.708-0.02-1.057C4.681 4.688 4.687 4.343 4.67 4.018c-0.002-0.332-0.042-0.64-0.074-0.945C4.566 2.927 4.535 2.783 4.512 2.639c-0.019-0.147-0.085-0.271-0.12-0.405C4.324 1.961 4.188 1.736 4.088 1.509c-0.046-0.12-0.123-0.206-0.182-0.302C3.845 1.11 3.786 1.02 3.731 0.935 3.63 0.754 3.482 0.62 3.389 0.498c-0.049-0.058-0.092-0.11-0.13-0.157C1.646 1.18 0.802 3.442 1.339 5.803c0.604 2.655 2.727 4.439 4.771 4.036C6.027 9.762 5.938 9.675 5.862 9.56z" data-fill-palette-color="accent"></path></g></svg></g></g></svg></g><defs><mask id="3936ea44-3b97-4723-bfb3-99a1ad6338c9"><rect width="640" height="400" fill="white"></rect><rect width="348.05760000000004" height="33.18561175944116" fill="black" y="107.00719412027942" x="23.731199999999973" id="transform-me"></rect></mask></defs></svg><rect width="395.52" height="247.2" fill="none" stroke="none" visibility="hidden"></rect></g></svg></g></svg>