<svg xmlns="http://www.w3.org/2000/svg" version="1.1" xmlns:xlink="http://www.w3.org/1999/xlink" xmlns:svgjs="http://svgjs.dev/svgjs" width="1000" height="1000" viewBox="0 0 1000 1000"><rect width="1000" height="1000" fill="#ffffff"></rect><g transform="matrix(0.7,0,0,0.7,149.5757675442319,467.22157217726044)"><svg viewBox="0 0 396 37" data-background-color="#ffffff" preserveAspectRatio="xMidYMid meet" height="93" width="1000" xmlns="http://www.w3.org/2000/svg" xmlns:xlink="http://www.w3.org/1999/xlink"><g id="tight-bounds" transform="matrix(1,0,0,1,0.2399943606916679,0.12982840923751837)"><svg viewBox="0 0 395.5199999999999 36.740343181524956" height="36.740343181524956" width="395.5199999999999"><g><svg viewBox="0 0 395.5199999999999 36.740343181524956" height="36.740343181524956" width="395.5199999999999"><g><svg viewBox="0 0 395.5199999999999 36.740343181524956" height="36.740343181524956" width="395.5199999999999"><g id="textblocktransform"><svg viewBox="0 0 395.5199999999999 36.740343181524956" height="36.740343181524956" width="395.5199999999999" id="textblock"><g><svg viewBox="0 0 395.5199999999999 36.740343181524956" height="36.740343181524956" width="395.5199999999999"><g transform="matrix(1,0,0,1,0,0)"><svg width="395.5199999999999" viewBox="3.75 -35.5 385.2699890136719 36" height="36.740343181524956" data-palette-color="#ffffff"><g class="undefined-text-0" data-fill-palette-color="primary" id="text-0"><path d="M27.85 0L27.85 0Q26.45 0 25.6-1.15L25.6-1.15 14.05-16.35 18.6-21 30.55-5.2Q31.25-4.25 31.25-3.15L31.25-3.15Q31.25-1.75 30.2-0.88 29.15 0 27.85 0ZM28.45-35.25L28.45-35.25Q29.65-35.25 30.43-34.27 31.2-33.3 31.2-32.3L31.2-32.3Q31.2-31.25 30.3-30.35L30.3-30.35 9.35-10.3 9.1-17.45 26-34.1Q27.15-35.25 28.45-35.25ZM6.85 0L6.85 0Q5.45 0 4.6-0.88 3.75-1.75 3.75-3.05L3.75-3.05 3.75-31.95Q3.75-33.25 4.65-34.13 5.55-35 6.95-35L6.95-35Q8.35-35 9.18-34.13 10-33.25 10-31.95L10-31.95 10-3.05Q10-1.75 9.15-0.88 8.3 0 6.85 0ZM68.7-17.5L68.7-17.5Q68.7-13.75 67.45-10.5 66.2-7.25 63.92-4.78 61.65-2.3 58.52-0.9 55.4 0.5 51.7 0.5L51.7 0.5Q48 0.5 44.9-0.9 41.8-2.3 39.52-4.78 37.25-7.25 36-10.5 34.75-13.75 34.75-17.5L34.75-17.5Q34.75-21.25 36-24.5 37.25-27.75 39.52-30.23 41.8-32.7 44.9-34.1 48-35.5 51.7-35.5L51.7-35.5Q55.4-35.5 58.52-34.1 61.65-32.7 63.92-30.23 66.2-27.75 67.45-24.5 68.7-21.25 68.7-17.5ZM62.2-17.5L62.2-17.5Q62.2-20.85 60.85-23.58 59.5-26.3 57.15-27.9 54.8-29.5 51.7-29.5L51.7-29.5Q48.6-29.5 46.25-27.9 43.9-26.3 42.57-23.6 41.25-20.9 41.25-17.5L41.25-17.5Q41.25-14.15 42.57-11.43 43.9-8.7 46.25-7.1 48.6-5.5 51.7-5.5L51.7-5.5Q54.8-5.5 57.15-7.1 59.5-8.7 60.85-11.43 62.2-14.15 62.2-17.5ZM77.6 0L77.6 0Q76.2 0 75.32-0.88 74.45-1.75 74.45-3.05L74.45-3.05 74.45-31.95Q74.45-33.25 75.32-34.13 76.2-35 77.5-35L77.5-35 93.75-35Q95.05-35 95.92-34.18 96.8-33.35 96.8-32.05L96.8-32.05Q96.8-30.95 95.92-30.1 95.05-29.25 93.75-29.25L93.75-29.25 80.25-29.25 80.7-29.85 80.7-19.8 80.35-20.45 91.5-20.45Q92.8-20.45 93.67-19.63 94.55-18.8 94.55-17.5L94.55-17.5Q94.55-16.4 93.67-15.55 92.8-14.7 91.5-14.7L91.5-14.7 80.25-14.7 80.7-15.15 80.7-3.05Q80.7-1.75 79.77-0.88 78.85 0 77.6 0ZM108.79-31.95L108.79-3.05Q108.79-1.75 107.84-0.88 106.89 0 105.64 0L105.64 0Q104.24 0 103.39-0.88 102.54-1.75 102.54-3.05L102.54-3.05 102.54-31.95Q102.54-33.25 103.44-34.13 104.34-35 105.74-35L105.74-35Q106.94-35 107.87-34.13 108.79-33.25 108.79-31.95L108.79-31.95Z" fill="#ffffff" data-fill-palette-color="primary"></path><path d="M115.69-35.05L115.69-35.05Q116.39-35.05 117.17-34.68 117.94-34.3 118.34-33.7L118.34-33.7 130.49-15 127.99-15.1 140.44-33.7Q141.39-35.05 142.89-35.05L142.89-35.05Q144.09-35.05 145.04-34.2 145.99-33.35 145.99-32L145.99-32 145.99-3.05Q145.99-1.75 145.14-0.88 144.29 0 142.89 0L142.89 0Q141.49 0 140.62-0.88 139.74-1.75 139.74-3.05L139.74-3.05 139.74-26.6 141.69-26.15 131.49-10.6Q131.04-10.05 130.37-9.65 129.69-9.25 128.99-9.3L128.99-9.3Q128.34-9.25 127.67-9.65 126.99-10.05 126.54-10.6L126.54-10.6 116.99-25.7 118.29-28.35 118.29-3.05Q118.29-1.75 117.49-0.88 116.69 0 115.39 0L115.39 0Q114.14 0 113.34-0.88 112.54-1.75 112.54-3.05L112.54-3.05 112.54-32Q112.54-33.25 113.46-34.15 114.39-35.05 115.69-35.05ZM164.89-26.85L166.34-27.15 155.54-1.75Q155.19-0.8 154.46-0.28 153.74 0.25 152.89 0.25L152.89 0.25Q151.54 0.25 150.89-0.5 150.24-1.25 150.24-2.35L150.24-2.35Q150.24-2.8 150.39-3.3L150.39-3.3 162.84-33.2Q163.24-34.2 164.06-34.75 164.89-35.3 165.84-35.2L165.84-35.2Q166.74-35.2 167.51-34.68 168.29-34.15 168.64-33.2L168.64-33.2 180.94-3.9Q181.19-3.25 181.19-2.7L181.19-2.7Q181.19-1.35 180.31-0.55 179.44 0.25 178.39 0.25L178.39 0.25Q177.49 0.25 176.76-0.3 176.04-0.85 175.64-1.8L175.64-1.8 164.89-26.85ZM174.29-7.85L157.09-7.85 159.84-13.6 173.34-13.6 174.29-7.85ZM209.54 0L209.54 0Q208.14 0 207.29-1.15L207.29-1.15 195.74-16.35 200.29-21 212.24-5.2Q212.94-4.25 212.94-3.15L212.94-3.15Q212.94-1.75 211.89-0.88 210.84 0 209.54 0ZM210.14-35.25L210.14-35.25Q211.34-35.25 212.11-34.27 212.89-33.3 212.89-32.3L212.89-32.3Q212.89-31.25 211.99-30.35L211.99-30.35 191.04-10.3 190.79-17.45 207.69-34.1Q208.84-35.25 210.14-35.25ZM188.54 0L188.54 0Q187.14 0 186.29-0.88 185.44-1.75 185.44-3.05L185.44-3.05 185.44-31.95Q185.44-33.25 186.34-34.13 187.24-35 188.64-35L188.64-35Q190.04-35 190.86-34.13 191.69-33.25 191.69-31.95L191.69-31.95 191.69-3.05Q191.69-1.75 190.84-0.88 189.99 0 188.54 0ZM221.23-35L221.23-35 237.98-35Q239.28-35 240.16-34.18 241.03-33.35 241.03-32.05L241.03-32.05Q241.03-30.8 240.16-30.03 239.28-29.25 237.98-29.25L237.98-29.25 223.98-29.25 224.43-30.1 224.43-20.35 224.03-20.75 235.73-20.75Q237.03-20.75 237.91-19.93 238.78-19.1 238.78-17.8L238.78-17.8Q238.78-16.55 237.91-15.78 237.03-15 235.73-15L235.73-15 224.18-15 224.43-15.4 224.43-5.3 224.03-5.75 237.98-5.75Q239.28-5.75 240.16-4.88 241.03-4 241.03-2.85L241.03-2.85Q241.03-1.6 240.16-0.8 239.28 0 237.98 0L237.98 0 221.23 0Q219.93 0 219.06-0.88 218.18-1.75 218.18-3.05L218.18-3.05 218.18-31.95Q218.18-33.25 219.06-34.13 219.93-35 221.23-35ZM258.63 0L258.63 0Q257.23 0 256.33-0.88 255.43-1.75 255.43-3.05L255.43-3.05 255.43-32.05 261.93-32.05 261.93-3.05Q261.93-1.75 261.01-0.88 260.08 0 258.63 0ZM269.78-29.25L247.58-29.25Q246.28-29.25 245.41-30.05 244.53-30.85 244.53-32.15L244.53-32.15Q244.53-33.45 245.41-34.23 246.28-35 247.58-35L247.58-35 269.78-35Q271.08-35 271.96-34.2 272.83-33.4 272.83-32.1L272.83-32.1Q272.83-30.8 271.96-30.03 271.08-29.25 269.78-29.25L269.78-29.25ZM281.13-35L292.53-35Q295.13-35 297.4-33.5 299.68-32 301.08-29.45 302.48-26.9 302.48-23.75L302.48-23.75Q302.48-20.65 301.08-18.1 299.68-15.55 297.4-14.03 295.13-12.5 292.53-12.5L292.53-12.5 283.33-12.5 283.83-13.4 283.83-3.05Q283.83-1.75 283.03-0.88 282.23 0 280.93 0L280.93 0Q279.68 0 278.88-0.88 278.08-1.75 278.08-3.05L278.08-3.05 278.08-31.95Q278.08-33.25 278.95-34.13 279.83-35 281.13-35L281.13-35ZM283.28-18.2L292.53-18.2Q293.48-18.2 294.38-19 295.28-19.8 295.88-21.08 296.48-22.35 296.48-23.75L296.48-23.75Q296.48-25.2 295.88-26.45 295.28-27.7 294.38-28.48 293.48-29.25 292.53-29.25L292.53-29.25 283.23-29.25 283.83-30.15 283.83-17.4 283.28-18.2ZM313.38-5.85L327.53-5.85Q328.83-5.85 329.7-5.03 330.58-4.2 330.58-2.9L330.58-2.9Q330.58-1.65 329.7-0.83 328.83 0 327.53 0L327.53 0 311.28 0Q309.98 0 309.1-0.88 308.23-1.75 308.23-3.05L308.23-3.05 308.23-31.95Q308.23-33.25 309.13-34.13 310.03-35 311.43-35L311.43-35Q312.63-35 313.55-34.13 314.48-33.25 314.48-31.95L314.48-31.95 314.48-5 313.38-5.85ZM339.37-35L339.37-35 356.12-35Q357.42-35 358.3-34.18 359.17-33.35 359.17-32.05L359.17-32.05Q359.17-30.8 358.3-30.03 357.42-29.25 356.12-29.25L356.12-29.25 342.12-29.25 342.57-30.1 342.57-20.35 342.17-20.75 353.87-20.75Q355.17-20.75 356.05-19.93 356.92-19.1 356.92-17.8L356.92-17.8Q356.92-16.55 356.05-15.78 355.17-15 353.87-15L353.87-15 342.32-15 342.57-15.4 342.57-5.3 342.17-5.75 356.12-5.75Q357.42-5.75 358.3-4.88 359.17-4 359.17-2.85L359.17-2.85Q359.17-1.6 358.3-0.8 357.42 0 356.12 0L356.12 0 339.37 0Q338.07 0 337.2-0.88 336.32-1.75 336.32-3.05L336.32-3.05 336.32-31.95Q336.32-33.25 337.2-34.13 338.07-35 339.37-35ZM376.17 0.5L376.17 0.5Q372.67 0.5 369.87-0.38 367.07-1.25 364.52-3.45L364.52-3.45Q363.87-4 363.52-4.7 363.17-5.4 363.17-6.1L363.17-6.1Q363.17-7.25 364-8.13 364.82-9 366.07-9L366.07-9Q367.02-9 367.77-8.4L367.77-8.4Q369.67-6.85 371.54-6.05 373.42-5.25 376.17-5.25L376.17-5.25Q378.02-5.25 379.57-5.83 381.12-6.4 382.07-7.38 383.02-8.35 383.02-9.6L383.02-9.6Q383.02-11.1 382.12-12.15 381.22-13.2 379.37-13.93 377.52-14.65 374.67-15.05L374.67-15.05Q371.97-15.45 369.92-16.28 367.87-17.1 366.5-18.38 365.12-19.65 364.42-21.38 363.72-23.1 363.72-25.25L363.72-25.25Q363.72-28.5 365.4-30.8 367.07-33.1 369.92-34.3 372.77-35.5 376.22-35.5L376.22-35.5Q379.47-35.5 382.25-34.52 385.02-33.55 386.77-32.05L386.77-32.05Q388.22-30.9 388.22-29.4L388.22-29.4Q388.22-28.3 387.37-27.4 386.52-26.5 385.37-26.5L385.37-26.5Q384.62-26.5 384.02-26.95L384.02-26.95Q383.22-27.65 381.87-28.28 380.52-28.9 379.02-29.33 377.52-29.75 376.22-29.75L376.22-29.75Q374.07-29.75 372.6-29.2 371.12-28.65 370.37-27.7 369.62-26.75 369.62-25.5L369.62-25.5Q369.62-24 370.5-23.03 371.37-22.05 373.02-21.48 374.67-20.9 376.97-20.45L376.97-20.45Q379.97-19.9 382.25-19.15 384.52-18.4 386.02-17.23 387.52-16.05 388.27-14.28 389.02-12.5 389.02-9.95L389.02-9.95Q389.02-6.7 387.22-4.35 385.42-2 382.5-0.75 379.57 0.5 376.17 0.5Z" fill="#61777f" data-fill-palette-color="secondary"></path></g></svg></g></svg></g></svg></g></svg></g></svg></g><defs></defs></svg><rect width="395.5199999999999" height="36.740343181524956" fill="none" stroke="none" visibility="hidden"></rect></g></svg></g></svg>